<svg width="124" height="128" viewBox="0 0 124 128" fill="none" xmlns="http://www.w3.org/2000/svg">
<g clip-path="url(#clip0_2001_1942)" filter="url(#filter0_d_2001_1942)">
<path d="M109.983 78.6779C109.589 84.7881 107.28 89.9163 103.054 94.0625C99.3328 97.7127 94.5275 100.282 88.6385 101.77C83.1873 103.158 77.8237 103.406 72.5476 102.514C67.2278 101.621 63.2653 99.7759 60.6602 96.9787C61.1199 96.0066 61.6125 94.608 62.1379 92.7829C62.9041 90.1246 63.2216 88.0316 63.0902 86.5041C65.6516 89.0236 68.826 90.9578 72.6133 92.3068C76.6196 93.7352 80.6587 94.2609 84.7307 93.8839C94.6917 92.9714 102.201 87.3175 107.258 76.9222L107.849 77.8149C108.418 78.3902 109.13 78.6779 109.983 78.6779Z" fill="#EF8200"/>
<path d="M60.6593 97.068C66.4608 101.79 73.5429 103.783 81.9058 103.049C89.5462 102.375 96.5407 99.6767 102.889 94.9552C96.4313 101.76 88.2217 105.261 78.2607 105.46C74.2982 105.519 70.5656 105.013 67.0628 103.942C63.779 102.91 61.3271 101.581 59.707 99.9545L60.6593 97.068Z" fill="#DDD583"/>
<path d="M61.6453 94.1517C66.1551 98.4963 72.5477 100.619 80.8229 100.52C88.6385 100.421 95.8629 98.4467 102.496 94.598C97.0232 99.5576 90.149 102.355 81.8738 102.99C73.3358 103.644 66.2646 101.67 60.6602 97.0679L61.6453 94.1517Z" fill="#CF7100"/>
<path d="M51.6628 26.3344C51.4001 27.604 50.6557 30.0045 49.4298 33.5357C48.3133 36.7693 47.7331 38.6639 47.6893 39.2194C47.6237 39.9931 47.8426 41.848 48.3461 44.784C48.7402 47.1845 49.1233 49.2377 49.4954 50.9438C51.3782 59.8909 53.4908 66.0705 55.8332 69.4827C58.6136 73.5099 60.4963 76.6345 61.4814 78.8563C63.2985 82.9629 63.7582 86.7024 62.8607 90.0749L60.3321 98.0797C59.6753 100.024 59.3251 101.631 59.2813 102.9L61.1859 106.59C62.3243 109.209 62.6198 110.945 62.0725 111.798C61.3063 112.949 60.3759 113.891 59.2813 114.625C57.9459 115.518 56.4681 116.033 54.8481 116.172C52.9435 116.331 50.9294 116.053 48.8058 115.339C46.5072 114.585 45.3469 113.683 45.325 112.631L45.4235 107.929C45.4016 105.668 45.1389 104.031 44.6354 103.019L42.5665 101.055C41.1217 99.508 40.246 98.1888 39.9395 97.0977L34.9809 96.2942L33.4375 97.3357C32.3648 98.1491 31.7737 98.8633 31.6642 99.4783L32.7479 101.442C33.4265 102.871 33.6236 103.823 33.339 104.299C32.9449 104.954 31.1716 105.797 28.0191 106.828C24.604 107.939 21.6923 108.495 19.2841 108.495C16.6571 108.495 14.2051 107.8 11.9283 106.412C9.62965 105.023 9.23559 103.952 10.7462 103.198L14.851 101.115C13.0777 100.064 11.8408 98.5657 11.1402 96.6216C9.7829 92.7531 11.8298 88.6267 17.281 84.2425C16.1864 82.6157 15.3764 79.8681 14.851 75.9996C14.2161 71.5558 14.3146 67.4195 15.1465 63.5908L13.1105 65.5547C12.0816 66.4673 11.3044 66.8542 10.779 66.7153C10.4068 66.6161 10.1113 66.1003 9.89236 65.1679L9.69533 63.7693C7.39664 64.4636 6.15973 64.543 5.98459 64.0074C5.78756 63.3924 5.77661 62.7972 5.95175 62.2219C6.25824 61.23 7.1011 60.0695 8.48031 58.7403C9.3341 56.9945 10.5272 55.0404 12.0597 52.8781C15.1246 48.593 18.3756 45.4486 21.8127 43.4449C20.3459 43.187 19.1747 42.7208 18.299 42.0463C16.7446 40.8759 14.8181 38.8028 12.5194 35.827C9.32316 31.7403 7.75786 28.3579 7.82354 25.6797C7.84543 24.3307 8.49125 22.823 9.761 21.1566C10.8994 19.6092 11.797 18.7958 12.4538 18.7165L15.9675 10.6522C15.8142 10.3943 15.7157 10.0868 15.6719 9.72971C15.5625 9.03537 15.7485 8.45014 16.2302 7.97402C18.2443 5.99019 20.2146 4.52215 22.1411 3.56991C26.6071 1.34802 31.8174 0.633839 37.7721 1.42737C42.0849 1.98285 45.7519 4.77013 48.773 9.78923C51.9255 15.0464 52.8887 20.5614 51.6628 26.3344Z" fill="#EF8200"/>
<path d="M7.91992 62.2815C9.34292 61.3293 10.4704 60.8135 11.3023 60.7341C11.959 60.6746 12.2217 60.8531 12.0904 61.2698C11.9371 61.6665 11.4446 62.0137 10.6127 62.3113L8.64237 62.5196L7.91992 62.2815Z" fill="#CF7100"/>
<path d="M10.6797 66.8939C12.3435 64.5133 13.9745 62.5097 15.5726 60.8829L15.3427 63.3528C12.7595 65.7731 11.2051 66.9535 10.6797 66.8939Z" fill="#CF7100"/>
<path d="M26.54 42.8498C29.6487 42.3539 32.1006 41.719 33.8958 40.9453L35.7676 40.9156C35.877 41.3719 35.5486 42.0563 34.7824 42.9689C32.7902 45.409 30.6448 46.6191 28.3461 46.5993C26.5947 46.5794 25.2593 46.2819 24.3398 45.7065C23.5736 45.2304 22.9278 44.4468 22.4023 43.3557L26.54 42.8498Z" fill="#CF7100"/>
<path d="M40.53 98.4666C38.0124 94.6576 37.4213 90.9379 38.7568 87.3075C38.516 89.5493 39.5011 91.5133 41.7122 93.1995C43.7482 94.7271 46.3315 95.6991 49.4621 96.1157C52.6146 96.5522 55.3949 96.2645 57.803 95.2528C60.3206 94.2013 61.8969 92.525 62.5318 90.2238L61.8422 93.0507L60.5943 97.5441C60.2878 98.3376 60.0032 99.3593 59.7405 100.609C59.4559 101.879 59.3245 102.702 59.3464 103.079C59.3902 103.615 60.1455 105.44 61.6123 108.554C60.2987 106.452 57.4309 105.489 53.0086 105.668C48.5426 105.846 45.9484 107.116 45.2259 109.477C45.2259 105.827 45.0617 103.694 44.7334 103.079C43.2009 101.909 41.7998 100.371 40.53 98.4666Z" fill="#CF7100"/>
<path d="M19.5468 96.2943C20.9041 95.5206 21.6594 94.4394 21.8126 93.0508C21.9659 91.7018 21.5061 90.3031 20.4334 88.8549C22.557 91.2951 25.5562 93.2293 29.4311 94.6577C31.5766 95.4314 33.5031 95.9273 35.2107 96.1455C34.3788 96.4431 33.5359 97.0978 32.6821 98.1095L31.6313 99.5081C32.1567 100.143 32.5617 100.917 32.8463 101.829C33.109 102.682 33.2185 103.446 33.1747 104.121C33.1309 104.716 32.299 105.321 30.679 105.936C29.6719 106.333 27.5812 106.977 24.4069 107.87L20.2035 108.495L17.675 108.406C19.9299 107.87 20.7399 106.938 20.105 105.608C19.5358 104.378 17.8392 102.98 15.0151 101.413C13.5483 100.599 12.399 99.1907 11.5671 97.187L10.7461 94.4196C11.8845 95.8678 13.3403 96.7407 15.1136 97.0383C16.7336 97.316 18.2114 97.068 19.5468 96.2943Z" fill="#CF7100"/>
<path d="M29.4962 47.73C31.357 49.9321 33.0974 52.6301 34.7175 55.8241C39.1616 64.4736 41.0772 73.2917 40.4642 82.2785L38.7238 87.0397C37.8481 90.7693 38.1436 93.993 39.6104 96.7108C36.1076 96.5918 32.4516 95.7586 28.6424 94.2112C21.0458 91.0966 16.5469 85.9486 15.1458 78.7671C14.0293 73.0933 14.3139 66.6855 15.9996 59.5437C16.9629 55.5562 18.2326 51.7572 19.8089 48.1466C20.3343 47.5713 20.9801 46.9861 21.7463 46.3909C23.2788 45.2403 24.6361 44.6848 25.8183 44.7245C26.6064 44.7444 27.8324 45.7462 29.4962 47.73Z" fill="#FFF697"/>
<path d="M28.8067 46.5695L25.8841 46.4207C25.096 46.2224 24.3736 45.8256 23.7168 45.2304L24.5378 44.9329L26.2125 44.9626C27.0006 45.2404 27.8654 45.776 28.8067 46.5695Z" fill="#DDD583"/>
<path d="M27.0006 86.1768C31.6637 87.0496 35.6919 86.7719 39.0852 85.3435C38.6254 85.6411 38.3299 87.0298 38.1985 89.5096C38.0453 92.525 38.516 94.9453 39.6106 96.7704C36.1516 96.9688 32.3424 96.0959 28.1828 94.1518C21.7027 91.1363 17.4009 86.1569 15.2773 79.2135C17.7512 82.8638 21.6589 85.1848 27.0006 86.1768Z" fill="#DDD583"/>
<path d="M11.3711 28.2091L12.9145 29.4292C14.1842 30.3219 15.4431 30.9964 16.6909 31.4527L18.3 31.8098C16.68 32.2462 15.2898 32.9505 14.1295 33.9225C12.9692 32.1768 12.0498 30.2723 11.3711 28.2091Z" fill="#922F00"/>
<path d="M18.2994 31.8098L28.7748 32.7323C33.2846 32.9902 36.1197 33.0596 37.28 32.9406C36.4918 34.4285 34.1932 35.9957 30.3839 37.6423C26.1806 39.4872 22.6012 40.132 19.6458 39.5765C19.186 39.4773 18.4636 38.9516 17.4784 37.9994C16.2743 36.8686 15.1578 35.5097 14.1289 33.9226C15.2892 32.9505 16.6794 32.2463 18.2994 31.8098Z" fill="#ED8599"/>
<path d="M14.3254 33.9821C14.1722 33.7639 14.7961 33.3274 16.1972 32.6728L18.3317 31.78L30.4819 32.7025L37.2794 32.9406C36.4694 33.9722 35.2325 34.974 33.5687 35.9461C32.7587 36.442 32.0143 36.8289 31.3357 37.1066C29.6719 35.7774 26.9901 34.7558 23.2903 34.0416C19.5248 33.3076 16.5365 33.2877 14.3254 33.9821Z" fill="#CE7486"/>
<path d="M38.1649 14.8182C37.0922 16.9013 36.4026 19.0438 36.0961 21.2459C35.7458 23.6463 35.899 25.8682 36.5558 27.9115C35.3298 27.852 34.6621 27.7131 34.5527 27.4949C33.9835 26.1459 34.0491 24.0629 34.7497 21.2459C35.494 18.2304 36.6324 16.0879 38.1649 14.8182Z" fill="white"/>
<path d="M40.9588 13.8066C42.951 13.9653 43.98 16.0483 44.0457 20.0556C44.1113 23.3488 43.8267 25.6798 43.1919 27.0486C43.0167 27.4256 42.1629 27.6934 40.6305 27.8521C39.3169 27.9711 37.9596 27.991 36.5585 27.9116C35.9017 25.8683 35.7485 23.6464 36.0988 21.2459C36.4053 19.0439 37.0949 16.9013 38.1676 14.8183C39.0433 14.0645 39.9737 13.7272 40.9588 13.8066Z" fill="#0D131A"/>
<path d="M12.5195 18.657C12.9355 17.0303 13.4609 15.4432 14.0958 13.8958C15.3655 10.7812 16.5587 9.43221 17.6752 9.84881C18.7041 10.2456 18.6494 12.5071 17.511 16.6335C16.3507 20.7599 15.3217 22.6941 14.4242 22.4362C13.7893 22.2378 13.2858 21.5534 12.9136 20.383L12.5195 18.657Z" fill="#0D131A"/>
<path d="M10.0254 27.1974C10.2662 27.6933 11.2076 28.3778 12.8495 29.2507C11.9957 29.9648 11.3937 30.2723 11.0434 30.1731C10.715 30.0739 10.3757 29.082 10.0254 27.1974Z" fill="white"/>
<path d="M14.2598 34.1011L15.0479 33.9225L15.9674 34.0118C16.0987 34.2102 15.9783 34.8054 15.6061 35.7973L14.2598 34.1011Z" fill="white"/>
<path d="M25.6855 39.2492L25.9154 38.2969C26.1124 37.6621 26.3314 37.3249 26.5722 37.2852C26.9662 37.2455 27.415 37.6224 27.9186 38.416L25.6855 39.2492Z" fill="white"/>
<path d="M26.4414 32.4943L30.4477 32.7621C29.2655 34.0516 28.4445 34.6963 27.9848 34.6963C27.5032 34.6963 26.9887 33.9623 26.4414 32.4943Z" fill="white"/>
<path d="M16.8862 106.888C17.1489 106.551 17.6195 106.203 18.2982 105.846L19.2177 105.4C19.9401 105.519 20.5203 106.015 20.9581 106.888L21.385 108.197C20.6845 108.792 19.3819 109.229 17.4772 109.507L14.5218 109.596C14.3904 109.477 14.5108 109.229 14.883 108.852L15.4413 108.287L11.9604 108.733L10.0229 108.554C9.89158 108.435 10.0558 108.148 10.5155 107.691L11.238 107.066L8.64372 107.275C6.87045 107.334 5.94003 107.185 5.85246 106.828C5.743 106.491 6.47639 105.787 8.05263 104.716C9.67266 103.625 10.7344 103.238 11.238 103.555C11.7853 103.872 12.2122 104.597 12.5186 105.727L13.2411 105.073C13.8103 104.636 14.3685 104.438 14.9158 104.478C15.4632 104.517 15.9557 104.934 16.3936 105.727L16.8862 106.888Z" fill="white"/>
<path d="M102.366 51.4497L102.727 52.6995C102.793 53.2947 102.716 53.8204 102.497 54.2767C102.344 54.6338 102.322 55.0305 102.431 55.467C102.541 55.9431 102.782 56.3795 103.154 56.7763L103.417 55.7943L105.551 57.7285L105.518 59.3652L106.142 60.3769C106.383 60.7539 106.525 61.3986 106.569 62.3112L108.375 63.3229L107.127 65.2274C106.886 65.5845 106.755 66.1598 106.733 66.9534C106.711 67.3501 106.722 67.7072 106.766 68.0246L109.689 66.4177L109.754 67.0129V67.9353C109.514 69.1256 109.557 69.8894 109.886 70.2267C110.63 71.0202 111.079 71.655 111.232 72.1312C111.429 72.7461 111.309 73.4603 110.871 74.2737C110.411 75.1267 110.17 76.0195 110.148 76.9519C110.148 77.7652 110.291 78.3009 110.575 78.5588L109.098 78.4695C108.528 78.2314 107.948 77.7454 107.357 77.0114C106.832 76.317 105.89 75.8112 104.533 75.4937L101.972 75.0771C101.424 74.978 100.822 74.5018 100.166 73.6488C99.4431 72.7164 99.1585 71.8534 99.3117 71.0599C99.4212 70.4449 99.7605 69.6216 100.33 68.59C100.811 67.6576 101.052 67.0625 101.052 66.8046C101.03 66.5467 100.789 66.0309 100.33 65.2572C99.87 64.5232 99.6401 64.0074 99.6401 63.7098C99.6401 63.4321 99.87 62.7873 100.33 61.7755C100.789 60.8035 100.997 60.2083 100.954 59.9901L100.527 58.8593C100.286 58.3038 100.166 57.8674 100.166 57.55C100.166 57.2326 100.341 56.7961 100.691 56.2407L101.249 55.1991C101.293 54.6635 101.194 53.9592 100.954 53.0864C100.603 51.7374 100.986 50.5768 102.103 49.6047L102.136 50.3189C102.158 50.8546 102.234 51.2315 102.366 51.4497Z" fill="#EFE908"/>
<path d="M112.578 52.5508C113.235 53.0071 113.585 53.5923 113.629 54.3065C113.695 55.5166 113.574 56.8557 113.268 58.3237L114.384 57.4608C115.194 56.9053 115.698 56.6871 115.895 56.8061C116.223 57.0243 116.081 58.8197 115.468 62.1922L116.059 61.7756C116.475 61.5177 116.727 61.4483 116.814 61.5673C116.946 61.7458 116.869 63.2833 116.585 66.1797L119.244 62.222L119.212 63.4123C119.19 64.2653 119.201 64.7811 119.244 64.9596L119.31 66.2392L119.015 67.8164C118.511 69.086 118.336 69.8895 118.489 70.2267C118.577 70.4449 118.555 70.7425 118.424 71.1194C118.27 71.5559 118.029 71.9031 117.701 72.161L116.223 73.2917C115.588 73.8274 115.227 74.2638 115.14 74.6011L114.614 75.5831L113.301 76.5353L110.542 78.5291C110.28 78.2513 110.148 77.7157 110.148 76.9221C110.17 75.9897 110.411 75.1069 110.871 74.2737C111.309 73.4604 111.429 72.7462 111.232 72.1312C111.079 71.6551 110.63 71.0202 109.886 70.2267C109.557 69.8895 109.513 69.1257 109.754 67.9354V67.0129L109.689 66.4178L106.766 68.0247C106.722 67.7073 106.711 67.3502 106.733 66.9534C106.755 66.1599 106.886 65.5845 107.127 65.2275L108.375 63.323L106.569 62.3112C106.525 61.3987 106.383 60.7539 106.142 60.377L105.518 59.3652L105.551 57.7286L103.449 55.8241C104.325 54.5743 104.785 53.751 104.828 53.3542L104.73 51.5985C104.686 50.6463 104.883 49.8825 105.321 49.3072C105.737 48.7517 106.525 47.9384 107.685 46.8671L109.491 45.1709C109.71 44.8733 109.94 44.2584 110.181 43.326C110.444 42.2745 110.542 41.4512 110.477 40.8561L111.298 42.4927C111.845 43.7624 112.053 44.8535 111.922 45.7661L111.101 49.0691C110.772 50.2793 110.75 51.0629 111.035 51.42L112.578 52.5508Z" fill="#E50020"/>
<path d="M12.1571 104.865L12.4527 105.817L11.0735 107.067L8.18369 107.215L6.08203 107.067C6.36663 106.749 7.46124 106.283 9.36587 105.668C10.3291 105.37 11.2595 105.103 12.1571 104.865Z" fill="#DBDCDC"/>
<path d="M10.3184 108.852C12.7484 107.265 14.7625 106.283 16.3606 105.906L16.6562 106.888L15.474 108.316L10.3184 108.852Z" fill="#DBDCDC"/>
<path d="M14.7539 109.834C15.4545 109.398 16.2316 108.941 17.0854 108.465C18.7711 107.513 19.9643 106.947 20.6648 106.769L21.0589 107.424C21.2778 107.92 21.2778 108.287 21.0589 108.525C20.7086 108.941 19.6468 109.269 17.8736 109.507L14.7539 109.834Z" fill="#DBDCDC"/>
<path d="M103.285 55.8538L103.646 55.348C103.909 55.8638 104.566 56.5283 105.617 57.3417C105.879 57.5401 105.978 57.9468 105.912 58.5618C105.847 59.1768 105.89 59.5438 106.044 59.6628C106.394 59.9405 106.613 60.248 106.7 60.5853L106.766 61.6565C106.766 62.1327 107.182 62.4898 108.014 62.7278C109.087 63.0254 109.13 63.69 108.145 64.7216C107.751 65.0985 107.467 65.5746 107.291 66.1499C107.16 66.626 107.127 67.0427 107.193 67.3997L109.065 66.388C109.612 65.9912 109.919 65.8028 109.984 65.8226C110.094 65.8424 110.17 66.1698 110.214 66.8046L110.017 68.6496C109.929 69.3439 110.072 69.8597 110.444 70.1969C111.166 70.8516 111.593 71.4864 111.725 72.1014C111.922 72.8751 111.692 73.7778 111.035 74.8094C110.838 75.1466 110.707 75.5831 110.641 76.1187C110.553 76.7932 110.586 77.4776 110.739 78.172C110.783 78.4299 110.674 78.6183 110.411 78.7373C110.126 78.8564 109.984 78.8365 109.984 78.6778L109.656 76.9221C109.568 76.2476 109.754 75.4541 110.214 74.5415C110.608 73.748 110.783 73.0933 110.739 72.5775C110.674 71.9626 110.345 71.3872 109.754 70.8516C109.207 70.3557 108.999 69.8002 109.13 69.1852C109.327 68.2726 109.36 67.5981 109.229 67.1617L107.817 67.9949C107.16 68.352 106.744 68.4809 106.569 68.3817C106.438 68.2825 106.372 67.8659 106.372 67.1319C106.328 65.8821 106.668 64.8803 107.39 64.1264C107.631 63.8884 107.707 63.69 107.62 63.5313C107.532 63.3726 107.204 63.1444 106.635 62.8468C106.372 62.708 106.208 62.5493 106.142 62.3707L106.076 61.6863C106.076 61.111 105.814 60.5654 105.288 60.0496C105.047 59.8314 104.96 59.4545 105.026 58.9189L104.96 57.7583L104.139 56.8656L103.285 55.8538Z" fill="#EFE908"/>
<path d="M41.3522 14.61C41.8557 14.6894 42.2389 15.1159 42.5016 15.8896C42.7424 16.6831 42.7862 17.6354 42.6329 18.7463C42.4359 20.0755 42.0309 21.0872 41.4179 21.7816C40.9144 22.337 40.4327 22.5751 39.973 22.4957C39.4476 22.3767 39.0535 21.851 38.7908 20.9186C38.5719 20.0457 38.5391 19.1232 38.6923 18.1512C38.9112 16.9609 39.2943 16.0384 39.8417 15.3837C40.3233 14.7886 40.8268 14.5307 41.3522 14.61Z" fill="white"/>
<path d="M17.543 10.4141C17.7181 10.434 17.8276 10.8407 17.8714 11.6342C17.8933 12.4079 17.8276 13.1419 17.6743 13.8362C17.3897 15.0265 17.0504 15.9292 16.6563 16.5442C16.3061 17.0798 15.9777 17.3179 15.6712 17.2583C15.4085 17.1988 15.2443 16.8913 15.1786 16.3359C15.091 15.6415 15.2224 14.7091 15.5727 13.5387C15.8792 12.5269 16.2294 11.7334 16.6235 11.1581C16.9738 10.6423 17.2803 10.3943 17.543 10.4141Z" fill="white"/>
<path d="M35.9016 21.96C36.3832 21.2062 36.9087 20.7995 37.4779 20.74C37.2808 22.1683 37.3246 23.3289 37.6092 24.2216C37.9157 25.1143 38.4521 25.6103 39.2183 25.7095C39.8094 25.7888 40.4114 25.5508 41.0244 24.9953C41.7468 24.3605 42.2613 23.4281 42.5678 22.1981C43.2027 22.9321 43.542 23.8943 43.5858 25.0846L42.8633 27.1974C41.922 27.6735 40.6194 27.9413 38.9556 28.0008L36.7226 27.9115C36.1972 26.9196 35.9016 25.6301 35.8359 24.0431L35.9016 21.96Z" fill="#007F78"/>
<path d="M16.6565 17.1691C16.8973 17.5658 17.0177 17.9626 17.0177 18.3594L16.2952 20.3531C15.7042 21.6624 15.124 22.327 14.5548 22.3469C13.9637 22.3667 13.4711 21.8906 13.0771 20.9185L12.5188 18.9545C12.4532 18.6768 12.5298 18.1114 12.7487 17.2583L13.0771 16.068L13.4711 15.7109L14.3249 15.2646C13.9309 16.3755 13.7776 17.3575 13.8652 18.2106C13.9528 18.9644 14.2045 19.4009 14.6205 19.5199C14.9708 19.6389 15.3429 19.4901 15.737 19.0735C16.1748 18.6173 16.4813 17.9824 16.6565 17.1691Z" fill="#007F78"/>
<path d="M35.0789 0.653726C42.8068 1.34807 48.0719 5.42484 50.8741 12.884C52.0344 15.9987 52.5708 19.3414 52.4832 22.9123C52.4175 26.384 51.7827 29.5482 50.5786 32.405C49.5934 34.7459 48.9914 36.2337 48.7725 36.8686C48.1376 38.5945 47.7764 40.013 47.6888 41.1239C47.5356 43.2664 47.2729 44.3179 46.9007 44.2782C46.5504 44.2385 46.4738 43.1573 46.6708 41.0346C46.8679 38.535 47.7545 35.5692 49.3307 32.1371C50.491 29.5978 51.115 26.6717 51.2025 23.3587C51.2901 19.9663 50.7866 16.7525 49.692 13.7173C47.0649 6.35724 42.161 2.3499 34.9804 1.69524C31.7841 1.4175 28.5222 1.83411 25.1945 2.94505C21.845 4.07584 19.1961 5.64306 17.2476 7.64673C16.7441 8.16253 16.4157 8.63865 16.2625 9.07509C16.0874 9.57105 16.1202 10.1067 16.361 10.682C16.4048 10.801 16.2953 10.9101 16.0326 11.0093L15.5729 10.9796C15.0037 9.51153 15.3211 8.17245 16.5252 6.96231C18.6269 4.81977 21.3962 3.16327 24.8333 1.99281C28.2923 0.802513 31.7075 0.356151 35.0789 0.653726Z" fill="#0D131A"/>
<path d="M42.5322 26.7808C43.4736 24.5985 43.7801 22.0394 43.4517 19.1033C43.1233 16.0681 42.2805 14.481 40.9231 14.3421C39.4345 14.1834 37.9896 15.3737 36.5885 17.913C35.0779 20.6706 34.5306 23.7455 34.9466 27.1379C35.1874 27.4949 36.4352 27.6239 38.6901 27.5247C40.9669 27.4255 42.2476 27.1775 42.5322 26.7808ZM34.0599 27.3759C33.4688 24.2216 33.9286 21.0772 35.4391 17.9428C36.9935 14.7488 38.8543 13.251 41.0217 13.4494C43.3203 13.6478 44.4697 15.8003 44.4697 19.9068C44.4697 23.3983 44.0318 25.8484 43.1561 27.2569C42.784 27.8719 41.2077 28.219 38.4274 28.2984C35.6471 28.3777 34.1913 28.0703 34.0599 27.3759Z" fill="#0D131A"/>
<path d="M17.3456 10.2356C16.6889 10.2356 15.7913 11.3565 14.6529 13.5982C13.5145 15.8598 12.9453 17.6452 12.9453 18.9546V18.9843C12.9453 19.6985 13.1533 20.3928 13.5692 21.0673C13.9414 21.7022 14.2479 21.9898 14.4887 21.9303C15.3863 21.7121 16.2948 19.7084 17.2143 15.9193C18.1338 12.1302 18.1775 10.2356 17.3456 10.2356ZM14.0618 13.0328C15.3753 10.4538 16.5137 9.22387 17.477 9.3429C18.9219 9.50161 19.1299 11.7334 18.1009 16.0383C17.0939 20.3234 15.9117 22.5751 14.5544 22.7933C14.0727 22.8726 13.5583 22.4362 13.011 21.484C12.4856 20.5714 12.2119 19.7183 12.19 18.9248C12.1681 17.4568 12.792 15.4928 14.0618 13.0328Z" fill="#0D131A"/>
<path d="M14.3576 26.6916C14.1606 26.2353 14.1825 25.9278 14.4233 25.7691C14.6641 25.6302 14.894 25.7988 15.1129 26.275L15.2771 27.1677C15.299 27.5248 15.2552 27.7331 15.1457 27.7926C14.9706 27.8918 14.7079 27.5248 14.3576 26.6916Z" fill="#0D131A"/>
<path d="M22.9286 28.2687C23.4759 28.0505 23.7824 28.0901 23.8481 28.3877C23.9138 28.6654 23.673 28.9333 23.1257 29.1912C22.3594 29.5284 21.9216 29.6474 21.8121 29.5482C21.7464 29.4689 21.834 29.2705 22.0748 28.9531C22.3375 28.6357 22.6221 28.4075 22.9286 28.2687Z" fill="#0D131A"/>
<path d="M12.4533 18.0619C12.5627 17.9826 12.6503 18.0917 12.716 18.3893C12.7817 18.6868 12.7598 18.8753 12.6503 18.9546C10.0889 21.0773 8.67686 23.081 8.41415 24.9657C8.06388 27.3264 9.4212 30.6989 12.4861 35.0832C15.5291 39.4476 18.2328 41.9373 20.5972 42.5523C21.648 42.8102 23.2352 42.8102 25.3588 42.5523C27.4604 42.2746 29.6277 41.7985 31.8608 41.124C33.3713 40.6677 34.1594 40.5685 34.2251 40.8264C34.3127 41.0645 33.5902 41.4414 32.0578 41.9572C29.781 42.7309 27.4495 43.2566 25.0632 43.5343C22.9397 43.7526 21.3634 43.7327 20.3345 43.4748C17.8388 42.84 14.9709 40.2709 11.7308 35.7676C8.38131 31.1453 6.89264 27.4554 7.26481 24.6978C7.43995 23.6067 7.9982 22.466 8.93957 21.2757C9.85904 20.0656 11.0303 18.9943 12.4533 18.0619Z" fill="#0D131A"/>
<path d="M38.5595 12.4973C37.837 12.9932 37.3225 13.39 37.0161 13.6876C36.6439 14.0645 36.3155 14.5307 36.0309 15.0862C35.7244 15.7408 35.4179 16.0384 35.1114 15.9789C34.8049 15.8995 34.794 15.5127 35.0786 14.8184C35.5821 13.6479 36.5016 12.7353 37.837 12.0807C38.4938 11.7831 38.8988 11.6938 39.052 11.8129C39.1834 11.9517 39.0192 12.1799 38.5595 12.4973Z" fill="#0D131A"/>
<path d="M18.6272 8.71791C18.4302 8.30131 18.4083 8.05333 18.5615 7.97397C18.7148 7.89462 18.9337 8.03349 19.2183 8.39058C19.9626 9.24363 20.2691 10.3843 20.1377 11.8127C20.0721 12.4872 19.875 12.8046 19.5467 12.7649C19.2183 12.7451 19.0869 12.4078 19.1526 11.7532C19.2402 10.6224 19.065 9.61064 18.6272 8.71791Z" fill="#0D131A"/>
<path d="M8.64437 24.8168C8.79761 24.0629 8.95086 23.686 9.1041 23.686C9.27924 23.7058 9.35586 24.1026 9.33397 24.8763C9.33397 25.5111 9.531 26.0368 9.92506 26.4534C10.6256 27.1676 11.775 28.0702 13.3731 29.1614C14.9493 30.2326 16.0658 30.8774 16.7226 31.0956C17.7734 31.4328 20.9697 31.7899 26.3114 32.1669L36.2614 32.5835C36.8306 32.5636 37.2794 32.4744 37.6078 32.3156L38.6586 31.4824C39.1622 31.0063 39.4687 30.8377 39.5781 30.9766C39.7095 31.0956 39.5891 31.4328 39.2169 31.9883C38.9104 32.4446 38.5492 32.7818 38.1332 33.0001C37.6954 33.2183 37.1371 33.3373 36.4585 33.3572L26.7055 32.9406C21.1011 32.5835 17.664 32.1966 16.3942 31.78C15.6718 31.5618 14.4239 30.8476 12.6506 29.6375C10.8774 28.4273 9.71709 27.5049 9.16978 26.87C8.97275 26.632 8.8195 26.3146 8.71004 25.9178C8.60058 25.5012 8.57869 25.1342 8.64437 24.8168Z" fill="#0D131A"/>
<path d="M11.9271 29.7565L12.4525 29.7863C13.3063 31.9288 14.598 34.0119 16.3275 36.0354C17.9256 37.9002 19.2063 38.9516 20.1696 39.1897C22.1399 39.6658 24.8983 39.2591 28.4448 37.9696C32.1227 36.6206 34.9687 34.8847 36.9828 32.762L37.6067 32.7323C37.9132 32.7918 38.0227 32.8612 37.9351 32.9406C35.921 35.2617 32.9218 37.186 28.9374 38.7135C25.0844 40.1816 22.0742 40.6478 19.9069 40.1121C18.7685 39.8344 17.3345 38.6838 15.605 36.6603C13.788 34.5574 12.4197 32.3653 11.5002 30.0839C11.4783 29.9648 11.6206 29.8557 11.9271 29.7565Z" fill="#0D131A"/>
<path d="M9.72852 27.3461C9.72852 27.2271 9.88176 27.1676 10.1883 27.1676C10.4729 27.1676 10.6152 27.2271 10.6152 27.3461C10.6152 27.5842 10.6918 28.0405 10.845 28.715C10.9983 29.449 11.1296 29.8259 11.2391 29.8458C11.3704 29.8656 11.5784 29.7763 11.863 29.578L12.4213 29.0423L13.0452 29.6077L11.9615 30.2921L11.0421 30.56C10.8012 30.4806 10.5166 30.0243 10.1883 29.1911C9.88176 28.3976 9.72852 27.7826 9.72852 27.3461Z" fill="#0D131A"/>
<path d="M30.4176 32.6728C30.6584 32.8117 30.746 32.9307 30.6803 33.0299L29.3339 34.3095C28.6772 34.7658 28.1955 34.9939 27.889 34.9939C27.6263 34.9939 27.276 34.7162 26.8382 34.1607C26.3785 33.6052 26.0829 33.1093 25.9516 32.6728C25.9297 32.5538 26.061 32.4645 26.3456 32.405C26.6521 32.3455 26.8163 32.3752 26.8382 32.4943L27.3636 33.6548C27.6263 34.0913 27.8124 34.3095 27.9219 34.3095C28.097 34.3293 28.4363 34.1309 28.9399 33.7143L29.9578 32.6133L30.4176 32.6728Z" fill="#0D131A"/>
<path d="M14.1938 34.1607C14.0843 33.9822 14.0953 33.873 14.2266 33.8334L15.2446 33.6548C15.7481 33.635 16.0656 33.6846 16.1969 33.8036C16.3283 33.9226 16.3392 34.2599 16.2298 34.8154C16.1422 35.351 16.0218 35.7279 15.8685 35.9462C15.7591 36.085 15.5511 35.9759 15.2446 35.6188L15.6715 34.6666L15.7372 34.1607C15.6277 34.0615 15.2337 34.1309 14.555 34.369C14.4236 34.4087 14.3032 34.3392 14.1938 34.1607Z" fill="#0D131A"/>
<path d="M26.4415 36.9876C26.6166 36.9479 26.8793 37.0769 27.2296 37.3744L28.2147 38.3564C28.3023 38.4556 28.2476 38.5647 28.0505 38.6838C27.8754 38.783 27.744 38.783 27.6565 38.6838C27.1311 37.9299 26.7698 37.5728 26.5728 37.6125C26.4633 37.6323 26.3539 37.8406 26.2444 38.2374L26.1131 39.1896C26.1131 39.3087 25.9927 39.3682 25.7518 39.3682C25.511 39.3682 25.3906 39.2988 25.3906 39.1599C25.3906 38.8425 25.5001 38.4259 25.719 37.9101C25.9817 37.3348 26.2225 37.0273 26.4415 36.9876Z" fill="#0D131A"/>
<path d="M21.3525 43.1177C21.4619 43.0582 21.5933 43.1871 21.7465 43.5045L21.845 44.0402C19.1961 45.7661 17.0068 47.6309 15.2774 49.6346C13.6135 51.5589 11.5009 54.6239 8.93955 58.8296C7.75737 60.0199 6.96925 61.1309 6.57519 62.1625C6.24681 62.9758 6.23586 63.4817 6.54235 63.6801C6.9583 63.9777 8.04197 63.8686 9.79335 63.3528L10.2531 63.323L10.3188 63.8884C10.3188 65.2969 10.5486 66.0607 11.0084 66.1797C11.3368 66.2591 11.9169 65.9317 12.7488 65.1977C13.6026 64.4836 14.3469 63.6801 14.9818 62.7874C15.1132 62.8667 15.2007 63.0056 15.2445 63.204L15.1788 63.7396C14.8067 64.4141 14.139 65.1581 13.1757 65.9714C12.0811 66.884 11.282 67.2609 10.7785 67.1022C9.90281 66.884 9.47591 65.9119 9.49781 64.186C8.62211 64.5034 7.79021 64.672 7.00209 64.6918C6.25775 64.7117 5.76518 64.6026 5.52436 64.3645C5.17409 64.0273 5.15219 63.3825 5.45868 62.4303C5.85275 61.2003 6.76127 59.8414 8.18427 58.3535C10.6143 54.1279 12.8802 50.8546 14.9818 48.5335C16.7332 46.5695 18.8567 44.7643 21.3525 43.1177Z" fill="#0D131A"/>
<path d="M9.20225 60.258C8.5017 61.1904 8.26088 61.7657 8.4798 61.9839C8.69873 62.1625 9.38833 62.0732 10.5486 61.7161C11.2054 61.4582 11.5776 61.4185 11.6651 61.5971C11.7308 61.7955 11.4462 62.0236 10.8113 62.2815C9.23509 62.9362 8.15142 63.1147 7.56033 62.8171C6.88167 62.4601 7.23195 61.4681 8.61116 59.8414C9.07089 59.3058 9.38833 59.0975 9.56347 59.2165C9.7605 59.3157 9.64009 59.6628 9.20225 60.258Z" fill="#0D131A"/>
<path d="M21.482 43.1771L22.0074 43.2366C22.292 43.3953 22.4015 43.5243 22.3358 43.6235C16.4468 55.7645 14.1153 66.4574 15.3412 75.7021C16.9394 87.9423 25.0286 94.8857 39.6088 96.5323C39.7401 96.5521 39.8496 96.7108 39.9372 97.0084C40.0466 97.3258 40.0247 97.4746 39.8715 97.4548C24.328 95.8677 15.7243 88.7458 14.0605 76.0889C12.8346 66.6459 15.3084 55.6753 21.482 43.1771Z" fill="#0D131A"/>
<path d="M18.6932 49.5454C19.5251 47.9186 20.5431 46.6391 21.7472 45.7067C22.9293 44.7941 24.1334 44.3378 25.3594 44.3378C27.0013 44.3378 28.8512 45.6769 30.9091 48.3551C32.8575 50.8746 34.6855 54.1578 36.3931 58.2048C40.3556 67.628 41.8005 75.6625 40.7277 82.3084L40.1695 83.1416L39.6769 83.588C40.7934 76.347 39.3047 68.0049 35.2109 58.5619C33.569 54.7529 31.8176 51.5987 29.9568 49.099C28.074 46.5796 26.5416 45.3198 25.3594 45.3198C24.5056 45.3198 23.5095 45.7364 22.3711 46.5696C20.9919 47.5814 19.8644 48.9502 18.9887 50.6762C18.9231 50.7952 18.8464 50.6663 18.7589 50.2893C18.6494 49.8926 18.6275 49.6446 18.6932 49.5454Z" fill="#0D131A"/>
<path d="M46.9338 40.7967C46.9119 40.6578 47.0542 40.1717 47.3607 39.3385C47.6891 38.5252 47.8643 38.178 47.8861 38.297C49.2216 46.9465 50.4913 53.3841 51.6954 57.6096C53.2935 63.3429 55.4718 68.2231 58.2302 72.2503C62.7181 78.797 64.3929 84.8873 63.2545 90.5214C63.0137 91.672 62.335 93.8542 61.2185 97.0681C60.299 99.6669 59.8065 101.809 59.7408 103.496C59.6751 105.083 59.4671 105.837 59.1169 105.757C58.7885 105.678 58.6681 104.825 58.7556 103.198C58.887 101.333 59.3796 99.0816 60.2334 96.4431C61.2404 93.388 61.8425 91.2852 62.0395 90.1346C62.9152 84.9568 61.1528 79.0152 56.7525 72.3098C54.016 68.1438 51.9581 63.4818 50.5789 58.3238C50.2505 57.1335 49.0355 51.2911 46.9338 40.7967Z" fill="#0D131A"/>
<path d="M44.3715 102.692C44.7655 102.871 44.9845 103.019 45.0282 103.139C45.6193 104.507 45.893 106.511 45.8492 109.15C45.8273 111.609 45.9696 113.048 46.2761 113.464C46.8015 114.179 47.8305 114.744 49.3629 115.161C50.8954 115.577 52.5045 115.736 54.1902 115.637C58.5029 115.399 61.0205 113.802 61.743 110.846C61.9181 110.112 61.5131 108.693 60.528 106.59C59.4771 104.329 58.9408 103.089 58.9189 102.871C58.897 102.752 58.9955 102.514 59.2144 102.157C59.4115 101.799 59.5209 101.69 59.5428 101.829C59.6085 102.524 60.2324 104.021 61.4146 106.323C62.4654 108.406 62.9142 109.953 62.761 110.965C62.2575 114.218 59.5319 116.024 54.5842 116.381C52.6139 116.519 50.7312 116.361 48.936 115.904C47.1409 115.448 45.9258 114.813 45.291 114C44.7874 113.326 44.6232 111.619 44.7984 108.882C44.9735 106.045 44.667 103.952 43.8789 102.603L44.3715 102.692Z" fill="#0D131A"/>
<path d="M40.4642 81.3262C41.2743 79.997 41.7997 79.4019 42.0405 79.5408C42.2594 79.6995 41.9967 80.4732 41.2524 81.8619C39.1945 85.7303 38.4939 89.4798 39.1507 93.1102C39.8075 96.7604 41.8216 100.024 45.193 102.9C46.397 103.932 46.9006 104.557 46.7035 104.775C46.5284 104.993 45.8278 104.606 44.6019 103.615C40.8802 100.639 38.6253 97.306 37.8372 93.6161C37.0053 89.6881 37.881 85.5914 40.4642 81.3262Z" fill="#0D131A"/>
<path d="M16.9842 83.8259C17.0937 83.7664 17.2579 83.8953 17.4768 84.2127C17.6739 84.5103 17.7176 84.6988 17.6082 84.7781C16.01 85.8097 14.5542 87.367 13.2407 89.4501C11.8396 91.6323 11.2047 93.5268 11.336 95.1337C11.4455 96.3836 12.0585 97.6334 13.175 98.8832C14.2477 100.113 15.5722 101.065 17.1484 101.74C18.5058 102.335 19.1187 102.732 18.9874 102.93C18.8779 103.148 18.0789 102.98 16.5902 102.424C14.8169 101.75 13.3282 100.738 12.1242 99.3891C10.8982 98.04 10.2305 96.6414 10.121 95.1932C9.94589 93.1499 10.6793 90.928 12.3212 88.5276C13.7004 86.5041 15.2548 84.9368 16.9842 83.8259Z" fill="#0D131A"/>
<path d="M31.2058 99.8652C31.1183 99.766 31.2168 99.6271 31.5014 99.4486C31.7641 99.27 31.9392 99.2303 32.0268 99.3295C32.7711 100.282 33.2966 101.224 33.603 102.156C33.9095 103.129 33.9314 103.922 33.6687 104.537C33.406 105.212 31.994 106.005 29.4326 106.918C26.696 107.91 23.9705 108.525 21.2558 108.763C21.1026 108.782 21.015 108.644 20.9931 108.346C20.9493 108.048 21.0041 107.89 21.1573 107.87C23.8063 107.632 26.3348 107.066 28.743 106.174C30.9103 105.36 32.191 104.616 32.5851 103.942C32.7821 103.585 32.7602 103.029 32.5194 102.276C32.2567 101.462 31.8188 100.659 31.2058 99.8652Z" fill="#0D131A"/>
<path d="M14.5882 100.788C14.7196 100.748 14.8947 100.867 15.1136 101.145C15.3325 101.422 15.3763 101.571 15.245 101.591C14.6539 101.789 13.9096 102.107 13.012 102.543C12.1144 103 11.4248 103.396 10.9432 103.734L10.3192 103.644C10.0127 103.505 9.91422 103.396 10.0237 103.317C10.5929 102.9 11.3153 102.434 12.191 101.918C13.1762 101.363 13.9752 100.986 14.5882 100.788Z" fill="#0D131A"/>
<path d="M31.3013 101.056C30.8416 102.008 30.5022 102.444 30.2833 102.365C30.0644 102.285 30.1082 101.75 30.4147 100.758C30.7649 99.6867 31.3998 98.6749 32.3193 97.7227C33.195 96.7506 34.0159 96.1852 34.7822 96.0265C34.9135 96.0067 35.1543 96.1059 35.5046 96.3241C35.8549 96.5423 35.9644 96.6613 35.833 96.6812C35.2638 96.8002 34.5085 97.2862 33.5671 98.1393C32.5382 99.0915 31.7829 100.064 31.3013 101.056Z" fill="#0D131A"/>
<path d="M12.2879 103.972C12.6163 104.468 12.8352 105.033 12.9447 105.668C12.9666 105.787 12.8352 105.866 12.5506 105.906C12.266 105.926 12.1018 105.876 12.0581 105.757L11.5655 104.567C11.2809 104.17 11.051 103.972 10.8759 103.972C10.2191 103.952 9.33247 104.329 8.21597 105.102C7.12135 105.836 6.61783 106.332 6.7054 106.59C6.79297 106.789 7.35122 106.878 8.38016 106.858L11.1386 106.59C11.2699 106.571 11.3684 106.69 11.4341 106.947C11.4998 107.205 11.467 107.344 11.3356 107.364L6.93527 107.572C5.95012 107.473 5.43565 107.305 5.39187 107.066C5.3043 106.551 6.02674 105.747 7.5592 104.656C9.06976 103.565 10.2082 103.029 10.9744 103.049C11.456 103.069 11.8939 103.377 12.2879 103.972Z" fill="#0D131A"/>
<path d="M16.2632 107.007C16.2413 106.491 16.099 106.015 15.8363 105.579C15.5298 105.122 15.2124 104.914 14.884 104.954C14.2929 105.033 13.4172 105.569 12.2569 106.561C11.1185 107.513 10.5931 108.098 10.6807 108.316C10.7463 108.495 11.4031 108.495 12.651 108.316L15.5736 107.751C15.7049 107.711 15.7706 107.82 15.7706 108.078C15.7706 108.356 15.7049 108.505 15.5736 108.525C14.5009 108.842 13.2749 109.05 11.8957 109.15C10.4727 109.249 9.68456 109.159 9.53131 108.882C9.31239 108.465 9.89253 107.602 11.2717 106.293C12.651 104.944 13.8112 104.21 14.7526 104.091C15.3437 104.011 15.8691 104.269 16.3289 104.864C16.8105 105.46 17.0622 106.174 17.0841 107.007C17.0841 107.126 16.9528 107.186 16.6901 107.186C16.4055 107.186 16.2632 107.126 16.2632 107.007Z" fill="#0D131A"/>
<path d="M13.999 110.013C13.7582 109.655 14.3274 108.763 15.7066 107.334C17.1077 105.886 18.2242 105.132 19.0561 105.073C19.6691 105.013 20.304 105.43 20.9607 106.323C21.6175 107.176 21.8583 107.89 21.6832 108.465C21.5299 109.001 20.2383 109.457 17.8083 109.834L13.999 110.013ZM15.1155 109.388L17.8083 109.12C19.5596 108.783 20.4901 108.465 20.5995 108.168C20.7309 107.83 20.6214 107.374 20.2711 106.799C19.9209 106.223 19.5487 105.946 19.1546 105.966C18.6073 106.005 17.7645 106.551 16.6261 107.602C15.5315 108.594 15.0279 109.189 15.1155 109.388Z" fill="#0D131A"/>
<path d="M106.7 76.8329C106.744 76.7139 106.919 76.7139 107.226 76.8329C107.532 76.952 107.664 77.071 107.62 77.19C105.212 82.3678 101.928 86.4545 97.7685 89.4501C94.0249 92.1283 89.8216 93.755 85.1585 94.3303C80.8457 94.866 76.6424 94.4494 72.5486 93.0805C68.4985 91.7315 65.1818 89.6683 62.5985 86.891C62.511 86.7918 62.5438 86.514 62.6971 86.0577C62.8722 85.6015 63.0036 85.4229 63.0911 85.5221C65.8933 88.5375 69.3304 90.7197 73.4024 92.0688C77.4087 93.4178 81.5134 93.7848 85.7168 93.1698C90.0952 92.5151 94.0577 90.8785 97.6043 88.2598C101.479 85.4031 104.511 81.5941 106.7 76.8329Z" fill="#0D131A"/>
<path d="M109.589 78.7076C109.611 78.5886 109.786 78.5489 110.115 78.5886C110.443 78.6283 110.597 78.7076 110.575 78.8266C109.655 85.7105 106.962 91.4339 102.496 95.9967C98.5996 99.9644 93.6629 102.781 87.6863 104.448C82.3227 105.916 76.9481 106.273 71.5626 105.519C66.3304 104.785 62.3241 103.168 59.5438 100.669C59.4562 100.589 59.5 100.351 59.6751 99.9545C59.8503 99.5577 59.9816 99.399 60.0692 99.4783C62.6744 101.839 66.5055 103.416 71.5626 104.21C76.7949 105.043 82.0052 104.805 87.1937 103.496C93.017 102.028 97.8333 99.3891 101.643 95.5801C106.021 91.1958 108.67 85.5717 109.589 78.7076Z" fill="#0D131A"/>
<path d="M108.866 84.064L108.767 85.5518C106.666 90.7296 103.305 94.8659 98.686 97.9607C94.6359 100.698 89.9291 102.444 84.5655 103.198C79.6835 103.892 74.9876 103.684 70.4778 102.573C66.0337 101.502 62.7061 99.7858 60.495 97.4251C60.4074 97.3259 60.4512 97.1176 60.6263 96.8002C60.8015 96.5026 60.9328 96.4034 61.0204 96.5026C63.2096 98.8237 66.5153 100.53 70.9376 101.621C75.4474 102.712 80.1323 102.9 84.9924 102.186C90.3341 101.413 95.0081 99.6271 99.0144 96.8299C103.568 93.636 106.852 89.3806 108.866 84.064Z" fill="#0D131A"/>
<path d="M115.598 58.3237V57.4012C115.533 57.2822 115.303 57.3616 114.909 57.6393C113.836 58.4527 113.223 58.7998 113.07 58.6808C112.938 58.5816 112.938 57.9567 113.07 56.8061C113.332 54.3461 112.763 52.8186 111.362 52.2234C110.771 51.9854 110.454 51.6184 110.41 51.1224C110.366 50.7455 110.497 49.9123 110.804 48.6228C111.154 47.0952 111.329 45.9446 111.329 45.1709C111.329 44.3575 111.154 43.3259 110.804 42.0761C110.629 43.1672 110.421 44.0004 110.18 44.5758C109.939 45.1511 109.611 45.5974 109.195 45.9148C107.575 47.1845 106.458 48.2657 105.845 49.1584C105.32 49.9321 105.09 50.7356 105.156 51.5688C105.243 52.3623 105.232 52.9674 105.123 53.384L104.532 54.5445L103.973 55.348C103.798 55.6455 103.678 56.0225 103.612 56.4787C103.503 57.1533 103.382 57.5004 103.251 57.5203C103.142 57.5401 102.879 57.2624 102.463 56.687C102.025 56.1117 101.97 55.2091 102.299 53.9791C102.474 53.384 102.419 52.7392 102.135 52.0449C101.85 51.3704 101.784 50.8248 101.937 50.4082C101.631 50.6661 101.401 51.1323 101.248 51.8068C101.095 52.5408 101.149 53.1757 101.412 53.7113C101.653 54.1874 101.697 54.7826 101.543 55.4967L101.149 56.568C100.865 57.064 100.722 57.5103 100.722 57.9071L100.985 58.9784C101.248 59.7322 101.303 60.3075 101.149 60.7043C100.514 62.0732 100.197 63.0254 100.197 63.561C100.197 63.9975 100.427 64.5331 100.887 65.1679C101.346 65.7829 101.554 66.3483 101.511 66.8641L100.952 68.4413L100.296 69.6018C100.099 70.0382 99.9891 70.5044 99.9672 71.0004C99.9234 71.8138 100.175 72.6073 100.722 73.381C101.27 74.2142 101.937 74.7102 102.726 74.8689L105.812 75.6723C106.666 75.9897 107.4 76.4659 108.013 77.1007C108.669 77.7355 109.239 78.0827 109.72 78.1422C110.246 78.2216 110.815 77.9736 111.428 77.3983C112.019 76.823 112.665 76.3766 113.365 76.0592C113.891 75.841 114.318 75.345 114.646 74.5713C114.974 73.7778 115.303 73.3016 115.631 73.1429C116.485 72.7065 117.098 72.2998 117.47 71.9229C117.995 71.3872 118.214 70.7623 118.127 70.0482C118.061 69.6117 118.171 68.9372 118.455 68.0247C118.74 67.1121 118.86 66.4376 118.816 66.0011V64.3347C118.882 63.6999 118.981 63.194 119.112 62.8171L118.324 64.2157L117.306 65.8821C116.802 66.7748 116.452 67.2113 116.255 67.1914C116.058 67.1914 116.003 66.7352 116.091 65.8226L116.354 63.9776L116.518 62.1922C115.861 62.6683 115.434 62.8667 115.237 62.7873C115.062 62.708 115.007 62.3608 115.073 61.7458L115.598 58.3237ZM112.085 43.9508L112.249 45.8851C112.227 46.4207 111.953 47.5813 111.428 49.3667C111.077 50.4975 111.187 51.1819 111.756 51.42C112.938 51.8961 113.661 52.6599 113.923 53.7113C114.186 54.6239 114.121 55.9233 113.726 57.6095C115.128 56.3399 115.97 55.963 116.255 56.4787C116.583 57.0144 116.441 58.7502 115.828 61.6863C116.507 61.1705 116.934 61.0614 117.109 61.359C117.35 61.7359 117.306 62.827 116.977 64.6323L117.995 63.323L118.652 62.1624C119.002 61.3491 119.243 60.9324 119.375 60.9126C119.55 60.9126 119.648 61.3788 119.67 62.3112L119.539 63.9776C119.495 64.7315 119.55 65.3465 119.703 65.8226C119.9 66.3781 119.791 67.1418 119.375 68.1139C118.937 69.1058 118.795 69.82 118.948 70.2565C119.232 71.1492 118.893 71.9328 117.93 72.6073C116.594 73.5199 115.817 74.1944 115.598 74.6308L115.007 75.8211C114.679 76.3171 114.307 76.6444 113.891 76.8031C113.059 77.1205 112.424 77.4975 111.986 77.9339C110.935 78.906 110.125 79.3623 109.556 79.3027C109.074 79.2631 108.319 78.7274 107.29 77.6958C106.042 76.4262 104.346 75.6723 102.2 75.4343C101.324 75.3351 100.547 74.8391 99.8687 73.9464C99.2338 73.1132 98.8835 72.2502 98.8178 71.3575C98.7522 70.7425 99.0368 69.8895 99.6716 68.7983C100.307 67.7271 100.613 67.0526 100.591 66.7748C100.569 66.4177 100.416 66.0904 100.131 65.7928L99.4746 65.0489C99.0368 64.295 99.2885 62.8369 100.23 60.6746C100.493 60.1191 100.482 59.5834 100.197 59.0676C99.8687 58.4527 99.7045 57.9567 99.7045 57.5798C99.7264 57.2425 99.9124 56.7664 100.263 56.1514L100.722 55.1397C100.81 54.7231 100.788 54.237 100.657 53.6815C100.416 52.7095 100.427 51.8663 100.69 51.1522C100.843 50.7752 101.193 50.2098 101.74 49.456C102.069 48.9997 102.277 48.7815 102.364 48.8013C102.474 48.8212 102.54 49.1088 102.561 49.6643L102.529 50.4975C102.55 50.9934 102.682 51.5192 102.923 52.0746C103.185 52.7095 103.163 53.4633 102.857 54.3362C102.66 54.852 102.693 55.4075 102.955 56.0026L104.006 54.1577C104.291 53.7014 104.422 53.2352 104.4 52.7591L104.269 51.4795C104.269 49.9718 104.729 48.7716 105.648 47.8788C106.196 47.3234 107.246 46.4703 108.801 45.3197C109.414 44.6452 109.797 43.5243 109.95 41.9571C110.125 40.5486 110.278 39.8344 110.41 39.8146C110.585 39.7749 110.968 40.4891 111.559 41.9571C111.778 42.4927 111.953 43.1573 112.085 43.9508Z" fill="#0D131A"/>
<path d="M38.1652 14.7588L38.7892 14.6696C39.0738 14.6894 39.1723 14.7489 39.0847 14.8481C37.6617 16.2566 36.786 18.4984 36.4576 21.5733C36.1512 24.4102 36.392 26.4932 37.1801 27.8224C37.2458 27.9414 37.1473 28.0406 36.8845 28.1199L36.392 28.0604C35.4725 26.4535 35.1988 24.182 35.571 21.246C35.9432 18.2702 36.8079 16.1078 38.1652 14.7588Z" fill="#0D131A"/>
<path d="M18.725 31.6015C18.8782 31.6015 19.1081 31.7007 19.4146 31.8991C19.7211 32.0975 19.8086 32.1967 19.6773 32.1967C18.7797 32.2562 17.8165 32.4843 16.7875 32.8811C15.868 33.258 15.069 33.6944 14.3903 34.1904C14.3027 34.2698 14.1823 34.2102 14.0291 34.0119C13.8758 33.8135 13.843 33.6746 13.9306 33.5953C15.5506 32.3851 17.1487 31.7205 18.725 31.6015Z" fill="#0D131A"/>
<path d="M46.1123 114.089C46.2436 113.673 46.5282 113.296 46.9661 112.958C47.4915 112.582 48.006 112.463 48.5095 112.601C49.1881 112.8 49.7026 113.226 50.0529 113.881C50.3594 114.456 50.447 114.952 50.3156 115.369C50.0967 116.043 49.5384 116.896 48.6408 117.928C47.7652 118.9 47.185 119.396 46.9004 119.416C46.5501 119.436 46.2765 118.712 46.0794 117.244C45.8824 115.795 45.8934 114.744 46.1123 114.089Z" fill="white"/>
<path d="M52.7787 115.161C52.6911 114.585 52.7459 114.079 52.9429 113.643C53.1837 113.107 53.6106 112.78 54.2236 112.661C55.4058 112.462 56.2377 112.869 56.7193 113.881C57.0039 114.496 57.0696 115.567 56.9163 117.095C56.7631 118.602 56.5332 119.416 56.2267 119.535C55.9202 119.654 55.3401 119.267 54.4863 118.374C53.5449 117.382 52.9757 116.311 52.7787 115.161Z" fill="white"/>
<path d="M59.0841 114.536C59.2373 113.246 59.6751 112.294 60.3976 111.679C61.0762 111.104 61.6564 111.064 62.138 111.56C62.5759 112.016 62.9809 113.167 63.353 115.012C63.7471 116.817 63.8237 117.769 63.5829 117.868C63.2983 117.987 62.4664 117.531 61.0872 116.5C59.708 115.468 59.0403 114.813 59.0841 114.536Z" fill="white"/>
<path d="M41.2188 43.5045L48.6731 54.0088C47.7099 57.1235 45.5863 60.2381 42.3025 63.3527C41.1422 64.4438 39.3799 65.8424 37.0155 67.5485L34.3228 69.691C33.2063 70.5243 32.4619 70.8813 32.0897 70.7623C31.7614 70.683 31.4768 70.0779 31.236 68.9471L30.9732 67.2807L29.2985 68.2329C28.1163 68.8082 27.372 68.957 27.0655 68.6793C26.7809 68.4214 26.7261 67.8064 26.9013 66.8343L27.2297 65.4655C25.6096 65.4655 24.8106 65.2373 24.8325 64.7811C24.8544 64.4636 25.2703 63.9974 26.0803 63.3825C27.0874 62.6088 27.777 61.9739 28.1491 61.478C29.0467 57.5302 31.4987 53.3542 35.5049 48.9501C37.4971 46.748 39.4018 44.9328 41.2188 43.5045Z" fill="#EF8200"/>
<path d="M32.2539 70.7028C33.5018 68.6 34.4431 67.2013 35.078 66.507L41.3173 61.359C44.6668 58.6411 46.9983 56.2605 48.3119 54.2172C48.0492 56.2605 46.6152 58.78 44.01 61.7756C41.6019 64.5529 39.4455 66.3781 37.5409 67.2509C34.7387 69.2943 32.9764 70.4449 32.2539 70.7028Z" fill="#CF7100"/>
<path d="M49.5597 113.226C50.3916 114.357 50.3697 115.656 49.494 117.124C48.7497 118.374 47.9834 119.108 47.1953 119.327L48.8701 116.023C49.3736 114.774 49.6035 113.841 49.5597 113.226Z" fill="#DBDCDC"/>
<path d="M53.3696 113.196L54.1906 116.083C54.5409 117.234 54.9459 118.275 55.4056 119.207C55.0116 119.287 54.4971 118.85 53.8622 117.898C53.2055 116.926 52.8333 116.013 52.7457 115.16C52.68 114.426 52.7676 113.881 53.0084 113.524L53.3696 113.196Z" fill="#DBDCDC"/>
<path d="M59.6096 113.018L61.3172 115.071C62.4775 116.519 63.0905 117.482 63.1562 117.958L61.2187 116.678C59.9271 115.706 59.2812 114.972 59.2812 114.476C59.2812 113.98 59.336 113.593 59.4454 113.315L59.6096 113.018Z" fill="#DBDCDC"/>
<path d="M48.3132 113.077C47.4813 113.018 46.934 113.306 46.6713 113.94C46.4086 114.536 46.3538 115.508 46.5071 116.857C46.6165 118.126 46.7807 118.801 46.9996 118.88C47.2186 118.96 47.7002 118.533 48.4445 117.601C49.1889 116.648 49.6267 115.875 49.7581 115.28C49.8456 114.803 49.7471 114.337 49.4625 113.881C49.1779 113.405 48.7948 113.137 48.3132 113.077ZM48.5102 112.334C49.2327 112.492 49.8019 112.899 50.2178 113.554C50.59 114.129 50.7432 114.734 50.6775 115.369C50.59 115.964 50.0208 116.877 48.9699 118.106C47.9191 119.336 47.1967 119.932 46.8026 119.892C46.321 119.872 45.9598 118.989 45.7189 117.244C45.5 115.518 45.5329 114.307 45.8175 113.613C45.9926 113.196 46.3538 112.849 46.9011 112.572C47.4703 112.294 48.0067 112.215 48.5102 112.334Z" fill="#0D131A"/>
<path d="M56.1951 113.941C56.0418 113.623 55.7901 113.385 55.4398 113.226C55.1114 113.068 54.7721 113.018 54.4218 113.078C54.1153 113.137 53.8417 113.306 53.6008 113.583C53.3163 113.901 53.1849 114.258 53.2068 114.655C53.2287 115.607 53.6556 116.629 54.4875 117.72C55.2318 118.692 55.7244 119.138 55.9652 119.059C56.1841 118.999 56.3593 118.325 56.4906 117.035C56.6658 115.647 56.5673 114.615 56.1951 113.941ZM55.801 112.453C56.3045 112.691 56.6877 113.058 56.9504 113.554C57.3225 114.288 57.4101 115.528 57.2131 117.273C57.016 118.979 56.7095 119.882 56.2936 119.981C55.7244 120.12 54.9034 119.485 53.8307 118.077C52.7361 116.648 52.2107 115.488 52.2545 114.595C52.2983 114.06 52.4843 113.574 52.8127 113.137C53.1849 112.641 53.6665 112.344 54.2576 112.244C54.8049 112.145 55.3194 112.215 55.801 112.453Z" fill="#0D131A"/>
<path d="M59.708 114.387C59.7299 114.843 60.2881 115.468 61.3828 116.262C62.4117 117.035 62.9918 117.382 63.1232 117.303C63.2983 117.164 63.2108 116.301 62.8605 114.714C62.4883 113.028 62.0395 112.036 61.5141 111.738C61.0106 111.699 60.5728 111.996 60.2006 112.631C59.8284 113.206 59.6642 113.792 59.708 114.387ZM58.7885 114.446C58.7229 113.673 59.0075 112.869 59.6423 112.036C60.2991 111.143 60.9887 110.756 61.7111 110.875C62.4993 111.034 63.1451 112.294 63.6486 114.655C64.1521 116.976 64.185 118.235 63.7471 118.434C63.4625 118.573 62.5868 118.097 61.1201 117.006C59.6095 115.875 58.8323 115.022 58.7885 114.446Z" fill="#0D131A"/>
<path d="M39.1176 44.6055C40.256 43.812 40.9128 43.4748 41.0879 43.5938C41.285 43.7327 40.869 44.2484 39.8401 45.1412C37.3006 47.3631 35.0676 49.823 33.141 52.521C30.9737 55.5365 29.485 58.4428 28.675 61.24C28.5218 61.7161 28.1824 62.222 27.657 62.7576L26.2121 63.9479C25.6867 64.3447 25.5116 64.6224 25.6867 64.7811C25.8619 64.9398 26.4201 65.0192 27.3615 65.0192C27.4928 65.0192 27.5476 65.158 27.5257 65.4358C27.5038 65.7135 27.4272 65.8524 27.2958 65.8524C26.0698 65.8524 25.1832 65.6937 24.6359 65.3763C23.8916 64.92 24.1433 64.2256 25.3912 63.2932L27.0003 62.0434C27.3724 61.7062 27.6023 61.359 27.6899 61.0019C28.6094 57.9071 30.0761 54.8917 32.0902 51.9556C34.1919 48.8807 36.5343 46.4307 39.1176 44.6055Z" fill="#0D131A"/>
<path d="M47.1315 55.8539C47.7445 54.4652 48.1495 53.8205 48.3465 53.9196C48.5654 54.0188 48.4122 54.8025 47.8868 56.2705C47.0987 58.5321 45.7742 60.6845 43.9133 62.7279C42.1838 64.6522 40.2573 66.1996 38.1338 67.37C37.7178 67.6081 36.7108 68.3818 35.1126 69.6911C33.5583 70.8417 32.4637 71.3278 31.8288 71.1492C31.4785 71.05 31.172 70.6731 30.9093 70.0184C30.6466 69.3638 30.5262 68.6794 30.5481 67.9652C29.6943 68.5207 28.8624 68.8777 28.0524 69.0365L26.6403 68.9769C26.3557 68.7587 26.2682 68.2628 26.3776 67.4891C26.4871 66.7352 26.7498 65.9913 27.1658 65.2573C27.7569 64.2257 28.1728 63.7495 28.4136 63.8289C28.6544 63.8884 28.5121 64.4736 27.9867 65.5846C27.3518 66.9336 27.1877 67.747 27.4941 68.0247L28.7092 67.8462C29.3659 67.6279 30.0008 67.3403 30.6138 66.9832C30.9203 66.8046 31.1173 66.7352 31.2049 66.7749C31.3143 66.7947 31.38 66.9633 31.4019 67.2808C31.5333 69.0265 31.8179 69.9589 32.2557 70.078C32.6279 70.1772 33.4269 69.7506 34.6529 68.7984L37.7397 66.5071C39.4692 65.535 41.2206 64.0669 42.9939 62.103C44.8328 60.0596 46.212 57.9766 47.1315 55.8539Z" fill="#0D131A"/>
</g>
<defs>
<filter id="filter0_d_2001_1942" x="-4" y="0" width="128" height="128" filterUnits="userSpaceOnUse" color-interpolation-filters="sRGB">
<feFlood flood-opacity="0" result="BackgroundImageFix"/>
<feColorMatrix in="SourceAlpha" type="matrix" values="0 0 0 0 0 0 0 0 0 0 0 0 0 0 0 0 0 0 127 0" result="hardAlpha"/>
<feOffset dy="4"/>
<feGaussianBlur stdDeviation="2"/>
<feComposite in2="hardAlpha" operator="out"/>
<feColorMatrix type="matrix" values="0 0 0 0 0 0 0 0 0 0 0 0 0 0 0 0 0 0 0.25 0"/>
<feBlend mode="normal" in2="BackgroundImageFix" result="effect1_dropShadow_2001_1942"/>
<feBlend mode="normal" in="SourceGraphic" in2="effect1_dropShadow_2001_1942" result="shape"/>
</filter>
<clipPath id="clip0_2001_1942">
<rect width="120" height="120" fill="white"/>
</clipPath>
</defs>
</svg>
